<svg width="2970" height="1252" viewBox="0 0 2970 1252" fill="none" xmlns="http://www.w3.org/2000/svg">
<path fill-rule="evenodd" clip-rule="evenodd" d="M195.8 1192.8C195.8 1230 159 1252 103 1252C39.0001 1252 2.6001 1226.8 2.6001 1180.8V1179.6H45.8001V1182.8C45.8001 1208.8 61.4001 1217.2 103 1217.2C141.8 1217.2 153.4 1209.2 153.4 1191.6C153.4 1175.2 143.8 1170 115.4 1166L61.0001 1158.8C23.4001 1154 0.600098 1138 0.600098 1104.8C0.600098 1070 32.2001 1045.2 93.4001 1045.2C154.2 1045.2 191 1069.6 191 1116.8V1118H148.2V1115.6C148.2 1092 136.2 1079.6 92.2001 1079.6C55.8001 1079.6 43.0001 1087.6 43.0001 1106.4C43.0001 1122 51.0001 1127.6 81.0001 1131.6L127 1138C174.2 1144 195.8 1160 195.8 1192.8ZM615.769 1180.4C615.769 1222.8 574.169 1252 514.969 1252C449.769 1252 406.969 1215.2 406.969 1148.8C406.969 1086.8 449.369 1045.2 514.169 1045.2C575.769 1045.2 617.769 1079.2 617.769 1139.6C617.769 1146.8 617.369 1152.4 616.169 1158.4H447.369C448.969 1196.8 467.769 1217.2 513.769 1217.2C555.369 1217.2 572.569 1203.6 572.569 1180V1176.8H615.769V1180.4ZM576.969 1133.6C576.969 1096.8 555.769 1079.2 513.369 1079.2C469.369 1079.2 450.169 1098.8 447.769 1134.4H576.969V1133.6ZM881.325 1136.4V1248H838.125V1049.2H877.725V1102.8H880.525C886.525 1070.8 908.125 1045.2 948.925 1045.2C994.125 1045.2 1013.73 1077.6 1013.73 1115.2V1141.2H970.925V1123.6C970.925 1095.2 958.925 1082 929.325 1082C895.325 1082 881.325 1100.8 881.325 1136.4ZM1450.06 1049.2L1356.46 1248H1303.66L1210.86 1049.2H1258.46L1329.26 1206H1332.46L1403.26 1049.2H1450.06ZM1703.42 1049.2V1248H1660.22V1049.2H1703.42ZM2135.02 1168.8C2135.02 1218.4 2091.42 1252 2031.82 1252C1966.22 1252 1923.42 1210 1923.42 1148.8C1923.42 1086.8 1966.22 1045.2 2031.82 1045.2C2091.42 1045.2 2135.02 1078.8 2135.02 1128.4V1132.4H2092.22V1130C2092.22 1099.2 2069.82 1084 2031.02 1084C1986.22 1084 1966.22 1105.2 1966.22 1148.8C1966.22 1191.6 1986.22 1213.2 2031.02 1213.2C2069.82 1213.2 2092.22 1198 2092.22 1167.2V1164.4H2135.02V1168.8ZM2555.77 1180.4C2555.77 1222.8 2514.17 1252 2454.97 1252C2389.77 1252 2346.97 1215.2 2346.97 1148.8C2346.97 1086.8 2389.37 1045.2 2454.17 1045.2C2515.77 1045.2 2557.77 1079.2 2557.77 1139.6C2557.77 1146.8 2557.37 1152.4 2556.17 1158.4H2387.37C2388.97 1196.8 2407.77 1217.2 2453.77 1217.2C2495.37 1217.2 2512.57 1203.6 2512.57 1180V1176.8H2555.77V1180.4ZM2516.97 1133.6C2516.97 1096.8 2495.77 1079.2 2453.37 1079.2C2409.37 1079.2 2390.17 1098.8 2387.77 1134.4H2516.97V1133.6ZM2964.93 1192.8C2964.93 1230 2928.13 1252 2872.13 1252C2808.13 1252 2771.73 1226.8 2771.73 1180.8V1179.6H2814.93V1182.8C2814.93 1208.8 2830.52 1217.2 2872.13 1217.2C2910.93 1217.2 2922.52 1209.2 2922.52 1191.6C2922.52 1175.2 2912.93 1170 2884.52 1166L2830.13 1158.8C2792.52 1154 2769.73 1138 2769.73 1104.8C2769.73 1070 2801.33 1045.2 2862.52 1045.2C2923.33 1045.2 2960.13 1069.6 2960.13 1116.8V1118H2917.33V1115.6C2917.33 1092 2905.33 1079.6 2861.33 1079.6C2824.93 1079.6 2812.13 1087.6 2812.13 1106.4C2812.13 1122 2820.13 1127.6 2850.13 1131.6L2896.13 1138C2943.33 1144 2964.93 1160 2964.93 1192.8Z" fill="#033059"/>
<path fill-rule="evenodd" clip-rule="evenodd" d="M646 744C646 858 576 930 426 930H5V260H407C544 260 618 318 618 423C618 506 574 566 462 574V583C586 592 646 654 646 744ZM388 395H155V526H390C445 526 468 507 468 461C468 415 444 395 388 395ZM408 650H155V795H408C469 795 494 776 494 722C494 669 469 650 408 650ZM1114.36 777C1101.36 861 1040.36 940 908.359 940C767.359 940 700.359 853 700.359 741V429H850.359V691C850.359 772 884.359 806 979.359 806C1077.36 806 1112.36 768 1112.36 683V429H1262.36V930H1122.36V777H1114.36ZM1489.05 429V930H1339.05V429H1489.05ZM1717.57 260V930H1567.57V260H1717.57ZM1946.09 260V378H1796.09V260H1946.09ZM1946.09 429V930H1796.09V429H1946.09ZM2377.6 795V930H2253.6C2136.6 930 2065.6 875 2065.6 749V553H1986.6V429H2065.6V332H2215.6V429H2377.6V553H2215.6V732C2215.6 782 2234.6 795 2287.6 795H2377.6ZM2964.78 755C2964.78 864 2858.78 940 2699.78 940C2532.78 940 2418.78 858 2418.78 680C2418.78 520 2531.78 419 2696.78 419C2860.78 419 2969.78 505 2969.78 662C2969.78 677.162 2968.36 688.776 2966.72 702.222C2966.41 704.739 2966.1 707.32 2965.78 710H2557.78C2561.78 787 2597.78 820 2694.78 820C2783.78 820 2814.78 797 2814.78 754V744H2964.78V755ZM2825.78 631C2821.78 565 2781.78 536 2693.78 536C2604.78 536 2566.78 566 2559.78 631H2825.78Z" fill="#033059"/>
<path fill-rule="evenodd" clip-rule="evenodd" d="M986.549 244.043L1093.5 149.896L1233.63 273.25H1233.58L1342.64 369.25H1342.68H1487.97L1378.92 273.25L1093.5 22L808.081 273.25L699.025 369.25H844.217L986.5 244L986.549 244.043Z" fill="#033059"/>
<path fill-rule="evenodd" clip-rule="evenodd" d="M1232 100.317V113.634L1279.38 155.528C1305.44 178.569 1327.27 197.589 1327.88 197.794C1328.7 198.066 1329 183.093 1329 142.583V87H1280.5H1232V100.317Z" fill="#033059"/>
</svg>
