<svg width="2970" height="1252" viewBox="0 0 2970 1252" fill="none" xmlns="http://www.w3.org/2000/svg">
<path fill-rule="evenodd" clip-rule="evenodd" d="M195.2 1192.8C195.2 1230 158.4 1252 102.4 1252C38.3999 1252 1.9999 1226.8 1.9999 1180.8V1179.6H45.1999V1182.8C45.1999 1208.8 60.7999 1217.2 102.4 1217.2C141.2 1217.2 152.8 1209.2 152.8 1191.6C152.8 1175.2 143.2 1170 114.8 1166L60.3999 1158.8C22.7999 1154 -9.7245e-05 1138 -9.7245e-05 1104.8C-9.7245e-05 1070 31.5999 1045.2 92.7999 1045.2C153.6 1045.2 190.4 1069.6 190.4 1116.8V1118H147.6V1115.6C147.6 1092 135.6 1079.6 91.5999 1079.6C55.1999 1079.6 42.3999 1087.6 42.3999 1106.4C42.3999 1122 50.3999 1127.6 80.3999 1131.6L126.4 1138C173.6 1144 195.2 1160 195.2 1192.8ZM615.169 1180.4C615.169 1222.8 573.569 1252 514.369 1252C449.169 1252 406.369 1215.2 406.369 1148.8C406.369 1086.8 448.769 1045.2 513.569 1045.2C575.169 1045.2 617.169 1079.2 617.169 1139.6C617.169 1146.8 616.769 1152.4 615.569 1158.4H446.769C448.369 1196.8 467.169 1217.2 513.169 1217.2C554.769 1217.2 571.969 1203.6 571.969 1180V1176.8H615.169V1180.4ZM576.369 1133.6C576.369 1096.8 555.169 1079.2 512.769 1079.2C468.769 1079.2 449.569 1098.8 447.169 1134.4H576.369V1133.6ZM880.725 1136.4V1248H837.525V1049.2H877.125V1102.8H879.925C885.925 1070.8 907.525 1045.2 948.325 1045.2C993.525 1045.2 1013.12 1077.6 1013.12 1115.2V1141.2H970.325V1123.6C970.325 1095.2 958.325 1082 928.725 1082C894.725 1082 880.725 1100.8 880.725 1136.4ZM1449.46 1049.2L1355.86 1248H1303.06L1210.26 1049.2H1257.86L1328.66 1206H1331.86L1402.66 1049.2H1449.46ZM1702.82 1049.2V1248H1659.62V1049.2H1702.82ZM2134.42 1168.8C2134.42 1218.4 2090.82 1252 2031.22 1252C1965.62 1252 1922.82 1210 1922.82 1148.8C1922.82 1086.8 1965.62 1045.2 2031.22 1045.2C2090.82 1045.2 2134.42 1078.8 2134.42 1128.4V1132.4H2091.62V1130C2091.62 1099.2 2069.22 1084 2030.42 1084C1985.62 1084 1965.62 1105.2 1965.62 1148.8C1965.62 1191.6 1985.62 1213.2 2030.42 1213.2C2069.22 1213.2 2091.62 1198 2091.62 1167.2V1164.4H2134.42V1168.8ZM2555.17 1180.4C2555.17 1222.8 2513.57 1252 2454.37 1252C2389.17 1252 2346.37 1215.2 2346.37 1148.8C2346.37 1086.8 2388.77 1045.2 2453.57 1045.2C2515.17 1045.2 2557.17 1079.2 2557.17 1139.6C2557.17 1146.8 2556.77 1152.4 2555.57 1158.4H2386.77C2388.37 1196.8 2407.17 1217.2 2453.17 1217.2C2494.77 1217.2 2511.97 1203.6 2511.97 1180V1176.8H2555.17V1180.4ZM2516.37 1133.6C2516.37 1096.8 2495.17 1079.2 2452.77 1079.2C2408.77 1079.2 2389.57 1098.8 2387.17 1134.4H2516.37V1133.6ZM2964.32 1192.8C2964.32 1230 2927.52 1252 2871.52 1252C2807.52 1252 2771.12 1226.8 2771.12 1180.8V1179.6H2814.32V1182.8C2814.32 1208.8 2829.92 1217.2 2871.52 1217.2C2910.32 1217.2 2921.92 1209.2 2921.92 1191.6C2921.92 1175.2 2912.32 1170 2883.92 1166L2829.52 1158.8C2791.92 1154 2769.12 1138 2769.12 1104.8C2769.12 1070 2800.72 1045.2 2861.92 1045.2C2922.72 1045.2 2959.52 1069.6 2959.52 1116.8V1118H2916.72V1115.6C2916.72 1092 2904.72 1079.6 2860.72 1079.6C2824.32 1079.6 2811.52 1087.6 2811.52 1106.4C2811.52 1122 2819.52 1127.6 2849.52 1131.6L2895.52 1138C2942.72 1144 2964.32 1160 2964.32 1192.8Z" fill="#57C8DA"/>
<path fill-rule="evenodd" clip-rule="evenodd" d="M645.4 744C645.4 858 575.4 930 425.4 930H4.3999V260H406.4C543.4 260 617.4 318 617.4 423C617.4 506 573.4 566 461.4 574V583C585.4 592 645.4 654 645.4 744ZM387.4 395H154.4V526H389.4C444.4 526 467.4 507 467.4 461C467.4 415 443.4 395 387.4 395ZM407.4 650H154.4V795H407.4C468.4 795 493.4 776 493.4 722C493.4 669 468.4 650 407.4 650ZM1113.76 777C1100.76 861 1039.76 940 907.759 940C766.759 940 699.759 853 699.759 741V429H849.759V691C849.759 772 883.759 806 978.759 806C1076.76 806 1111.76 768 1111.76 683V429H1261.76V930H1121.76V777H1113.76ZM1488.45 429V930H1338.45V429H1488.45ZM1716.97 260V930H1566.97V260H1716.97ZM1945.49 260V378H1795.49V260H1945.49ZM1945.49 429V930H1795.49V429H1945.49ZM2377 795V930H2253C2136 930 2065 875 2065 749V553H1986V429H2065V332H2215V429H2377V553H2215V732C2215 782 2234 795 2287 795H2377ZM2964.18 755C2964.18 864 2858.18 940 2699.18 940C2532.18 940 2418.18 858 2418.18 680C2418.18 520 2531.18 419 2696.18 419C2860.18 419 2969.18 505 2969.18 662C2969.18 677.162 2967.76 688.776 2966.12 702.222C2965.81 704.739 2965.5 707.32 2965.18 710H2557.18C2561.18 787 2597.18 820 2694.18 820C2783.18 820 2814.18 797 2814.18 754V744H2964.18V755ZM2825.18 631C2821.18 565 2781.18 536 2693.18 536C2604.18 536 2566.18 566 2559.18 631H2825.18Z" fill="#57C8DA"/>
<path fill-rule="evenodd" clip-rule="evenodd" d="M985.949 244.043L1092.9 149.896L1233.03 273.25H1232.98L1342.04 369.25H1342.08H1487.37L1378.32 273.25L1092.9 22L807.481 273.25L698.425 369.25H843.616L985.9 244L985.949 244.043Z" fill="#F2F2F2"/>
<path fill-rule="evenodd" clip-rule="evenodd" d="M1231.4 100.317V113.634L1278.78 155.528C1304.84 178.569 1326.67 197.589 1327.28 197.794C1328.1 198.066 1328.4 183.093 1328.4 142.583V87H1279.9H1231.4V100.317Z" fill="#F2F2F2"/>
</svg>
